<?xml version="1.0" encoding="iso-8859-1"?>
<!-- Uploaded to: SVG Repo, www.svgrepo.com, Generator: SVG Repo Mixer Tools -->
<svg height="800px" width="800px" version="1.1" id="Layer_1" xmlns="http://www.w3.org/2000/svg" xmlns:xlink="http://www.w3.org/1999/xlink" 
	 viewBox="0 0 512.003 512.003" xml:space="preserve">
<g transform="translate(0 -1)">
	<g>
		<path style="fill:#8697CB;" d="M72.202,508.352c-23.021,0-46.412-10.278-69.092-30.853c-3.878-3.518-4.172-9.519-0.645-13.397
			c3.508-3.878,9.51-4.172,13.388-0.654c38.021,34.494,75.112,34.541,110.26,0.133c7.32-7.168,14.981-15.711,23.087-24.756
			c4.57-5.111,9.216-10.278,13.9-15.322c3.556-3.84,9.567-4.058,13.397-0.493c3.84,3.565,4.058,9.557,0.493,13.397
			c-4.608,4.959-9.178,10.05-13.672,15.076c-8.325,9.282-16.175,18.043-23.941,25.647
			C118.121,497.942,95.346,508.352,72.202,508.352"/>
		<path style="fill:#8697CB;" d="M199.095,411.959c-2.854,0-5.679-1.28-7.547-3.726c-3.176-4.162-2.38-10.107,1.783-13.293
			c24.946-19.048,49.256-25.733,74.344-20.471c5.12,1.081,8.401,6.106,7.32,11.236c-1.071,5.12-6.068,8.42-11.226,7.32
			c-19.361-4.077-38.628,1.489-58.927,16.991C203.125,411.324,201.096,411.959,199.095,411.959"/>
	</g>
	<path style="fill:#464F5D;" d="M284.448,460.762c125.677,0,227.556-101.879,227.556-227.556S410.125,5.651,284.448,5.651
		S56.892,107.529,56.892,233.206S158.771,460.762,284.448,460.762 M95.776,252.169h86.187c2.731,14.801,8.571,28.501,16.858,40.42
		l-60.871,60.862C114.796,325.3,99.587,290.389,95.776,252.169 M137.75,113.228l60.862,60.871
		c-8.268,11.966-14.042,25.752-16.716,40.609H95.757C99.483,176.431,114.625,141.445,137.75,113.228 M265.722,44.525v86.158
		c-14.886,2.721-28.681,8.562-40.657,16.896l-60.862-60.871C192.411,63.507,227.407,48.299,265.722,44.525 M404.692,86.708
		l-60.862,60.871c-11.975-8.334-25.771-14.175-40.657-16.896V44.525C341.488,48.299,376.485,63.507,404.692,86.708 M473.139,214.708
		h-86.139c-2.674-14.857-8.448-28.644-16.716-40.609l60.862-60.871C454.271,141.445,469.413,176.431,473.139,214.708
		 M430.946,353.451l-60.871-60.862c8.287-11.918,14.127-25.619,16.858-40.42h86.187C469.308,290.389,454.1,325.3,430.946,353.451
		 M303.174,421.888V335.73c14.772-2.693,28.473-8.467,40.382-16.687l60.871,60.862C376.266,402.982,341.375,418.124,303.174,421.888
		 M164.469,379.904l60.871-60.862c11.909,8.22,25.609,13.995,40.382,16.687v86.158C227.521,418.124,192.629,402.982,164.469,379.904
		"/>
	<path style="fill:#2C2F38;" d="M218.077,233.206c0-36.599,29.772-66.37,66.37-66.37s66.37,29.772,66.37,66.37
		s-29.772,66.37-66.37,66.37S218.077,269.805,218.077,233.206"/>
	<path style="fill:#464F5D;" d="M284.448,261.649c-15.682,0-28.444-12.762-28.444-28.444c0-15.682,12.762-28.444,28.444-28.444
		c15.682,0,28.444,12.762,28.444,28.444C312.892,248.887,300.13,261.649,284.448,261.649"/>
	<g>
		<path style="fill:#8697CB;" d="M343.559,319.038c-11.909,8.23-25.609,13.995-40.382,16.687v47.91
			c27.79-3.432,53.21-14.364,74.249-30.729L343.559,319.038z"/>
		<path style="fill:#8697CB;" d="M181.963,252.169h-47.91c3.48,27.819,14.469,53.248,30.9,74.278l33.868-33.858
			C190.535,280.671,184.694,266.97,181.963,252.169"/>
		<path style="fill:#8697CB;" d="M370.079,292.586l33.868,33.868c16.431-21.039,27.42-46.469,30.891-74.287h-47.9
			C384.197,266.967,378.366,280.677,370.079,292.586"/>
		<path style="fill:#8697CB;" d="M265.72,130.686v-47.91c-27.913,3.442-53.428,14.45-74.515,30.938l33.868,33.858
			C237.038,139.248,250.834,133.398,265.72,130.686"/>
		<path style="fill:#8697CB;" d="M377.692,113.711c-21.087-16.479-46.602-27.487-74.515-30.938v47.91
			c14.886,2.721,28.672,8.562,40.647,16.896L377.692,113.711z"/>
		<path style="fill:#8697CB;" d="M198.616,174.095l-33.868-33.868c-16.412,21.106-27.373,46.601-30.767,74.487h47.91
			C184.564,199.847,190.348,186.07,198.616,174.095"/>
		<path style="fill:#8697CB;" d="M387.004,214.713h47.91c-3.394-27.885-14.355-53.381-30.767-74.477l-33.868,33.858
			C378.547,186.069,384.33,199.846,387.004,214.713"/>
		<path style="fill:#8697CB;" d="M225.336,319.038l-33.925,33.925c21.049,16.403,46.488,27.354,74.306,30.786v-48.024
			C250.946,333.032,237.245,327.268,225.336,319.038"/>
	</g>
</g>
</svg>